<svg width="24" height="24" viewBox="0 0 24 24" fill="none" xmlns="http://www.w3.org/2000/svg">
<g clip-path="url(#clip0)">
<path d="M21 19.4948H7.5V23.4596C6.92188 24.0696 6.4375 24.1634 6.04688 23.7411L0.351562 18.8848C0.117188 18.6346 0 18.3374 0 17.9934C0 17.6493 0.117188 17.3521 0.351562 17.1019L6.04688 12.2456C6.4375 11.8233 6.92188 11.9249 7.5 12.5505V16.4919H19.5C19.9062 16.4919 20.2578 16.3472 20.5547 16.0579C20.8516 15.7685 21 15.4127 21 14.9904V11.9875C21 11.5808 21.1445 11.2289 21.4336 10.9318C21.7227 10.6346 22.0742 10.486 22.4883 10.486C22.9023 10.486 23.2578 10.6346 23.5547 10.9318C23.8516 11.2289 24 11.5808 24 11.9875V16.4919C24 17.3208 23.707 18.0285 23.1211 18.6151C22.5352 19.2016 21.8281 19.4948 21 19.4948ZM17.9531 11.7529C17.5625 12.1752 17.0781 12.0735 16.5 11.4479V7.48309H4.5C4.07812 7.48309 3.72266 7.63167 3.43359 7.92884C3.14453 8.226 3 8.57791 3 8.98456V11.9875C3 12.4098 2.85156 12.7656 2.55469 13.0549C2.25781 13.3443 1.90234 13.489 1.48828 13.489C1.07422 13.489 0.722656 13.3443 0.433594 13.0549C0.144531 12.7656 0 12.4098 0 11.9875V7.48309C0 6.65415 0.292969 5.94643 0.878906 5.35992C1.46484 4.77341 2.17188 4.48016 3 4.48016H16.5V0.538809C17.0781 -0.0711612 17.5625 -0.165003 17.9531 0.257285L23.6484 5.11359C23.8828 5.36383 24 5.661 24 6.00508C24 6.34917 23.8828 6.64633 23.6484 6.89658L17.9531 11.7529Z" fill="#F6F6F6"/>
</g>
<defs>
<clipPath id="clip0">
<rect width="24" height="24" fill="white"/>
</clipPath>
</defs>
</svg>
